<?xml version="1.0" encoding="utf-8"?>
<!-- Generator: Adobe Illustrator 24.1.3, SVG Export Plug-In . SVG Version: 6.00 Build 0)  -->
<svg version="1.1" id="图层_1" xmlns="http://www.w3.org/2000/svg" xmlns:xlink="http://www.w3.org/1999/xlink" x="0px" y="0px"
	 viewBox="0 0 120 120" style="enable-background:new 0 0 120 120;" xml:space="preserve">
<style type="text/css">
	.st0{opacity:0.4;fill:#BDC5D1;enable-background:new    ;}
	.st1{fill:#E10185;}
	.st2{fill:#BDC5D1;}
	.st3{fill-rule:evenodd;clip-rule:evenodd;fill:#FFFFFF;}
	.st4{fill:#FFFFFF;}
</style>
<g id="icon-51" transform="translate(-0.019 -0.047)">
	<path id="Path_1" class="st0" d="M94.9,116.9L64.3,77.7c-0.6-0.7-1.6-0.8-2.3-0.2c-0.1,0.1-0.2,0.2-0.3,0.3l-6.1,8.6
		c-0.5,0.7-1.6,0.9-2.3,0.4c-0.1-0.1-0.2-0.2-0.3-0.3L40,70c-0.6-0.7-1.7-0.8-2.4-0.2c-0.1,0.1-0.1,0.1-0.2,0.2l-37,47
		c-0.6,0.8-0.5,2,0.3,2.6c0.3,0.2,0.6,0.4,1,0.4h91.9c1-0.1,1.8-1,1.7-2C95.3,117.6,95.2,117.2,94.9,116.9z"/>
	<path id="Path_2" class="st1" d="M119.6,103L88.4,59.5c-0.5-0.7-1.6-0.9-2.3-0.3c-0.2,0.1-0.3,0.3-0.4,0.4l-6.3,9.6
		c-0.4,0.8-1.3,1.1-2.1,0.7c-0.2-0.1-0.5-0.3-0.6-0.6L63.6,50.9c-0.5-0.7-1.5-0.9-2.2-0.4c-0.2,0.1-0.3,0.2-0.4,0.4l-37.7,52.2
		c-0.9,1.3-0.1,3.3,1.3,3.3h93.8C119.9,106.3,120.6,104.3,119.6,103z"/>
	<path id="Path_3" class="st1" d="M6,58.9L2.7,56c-0.5-0.5-0.6-1.2-0.2-1.8l33.6-39c0.5-0.5,1.2-0.6,1.8-0.2l3.4,2.9
		c0.5,0.5,0.6,1.2,0.2,1.8l-33.6,39c-0.4,0.6-1.2,0.7-1.7,0.3C6.1,59,6.1,59,6,58.9z"/>
	<path id="Path_4" class="st1" d="M44.7,15.9l-5.4-4.7C39,11,39,10.5,39.2,10.1l4.5-5.2c0.3-0.3,0.8-0.3,1.2-0.1l5.3,4.7
		c0.3,0.3,0.3,0.8,0.1,1.2l-4.5,5.2C45.5,16.2,45,16.2,44.7,15.9C44.7,15.9,44.7,15.9,44.7,15.9z"/>
	<path id="Path_5" class="st2" d="M40.3,4.8L38.5,7c-0.3,0.3-0.8,0.4-1.2,0.2c-2.1-1.5-8.4-5.7-14.4-3.4c-0.4,0-0.8,0-1-0.3l0,0
		c-0.4-0.4-0.3-1,0.1-1.4c0,0,0.1-0.1,0.1-0.1c2.7-1.5,10-4.2,18.1,1.6c0.4,0.2,0.5,0.7,0.3,1C40.4,4.7,40.4,4.7,40.3,4.8z"/>
	<path id="Path_6" class="st2" d="M50.9,13.9l-1.8,2.2c-0.3,0.3-0.3,0.9,0,1.2c1.8,1.8,6.8,7.5,5.6,13.8c-0.1,0.3,0,0.7,0.3,0.9l0,0
		c0.4,0.4,1,0.3,1.3-0.1c0.1-0.1,0.1-0.1,0.2-0.2c1-2.9,2.7-10.5-4.2-17.7C52,13.6,51.3,13.5,50.9,13.9
		C50.9,13.9,50.9,13.9,50.9,13.9z"/>
	<g id="Group_1">
		<path id="Path_7" class="st2" d="M91.5,44L91.5,44c-0.5-0.5-0.6-1.3-0.1-1.9l1.2-1.3c0.5-0.5,1.3-0.6,1.9-0.1l0,0
			c0.5,0.5,0.6,1.3,0.1,1.9l-1.2,1.3C92.9,44.4,92.1,44.5,91.5,44z"/>
		<path id="Path_8" class="st2" d="M97.3,37.3L97.3,37.3c-0.6-0.4-0.8-1.1-0.5-1.7c0.3-0.5,0.5-1,0.7-1.5c0.3-0.6,1-0.9,1.6-0.7l0,0
			c0.7,0.2,1.1,1,0.8,1.7c0,0,0,0.1,0,0.1c-0.2,0.6-0.5,1.2-0.8,1.7C98.7,37.5,97.9,37.7,97.3,37.3C97.3,37.3,97.3,37.3,97.3,37.3z"
			/>
		<path id="Path_9" class="st2" d="M100.8,29.4L100.8,29.4c-0.7,0-1.2-0.5-1.3-1.2c0-0.6-0.1-1.1-0.2-1.7c-0.1-0.7,0.3-1.3,1-1.5
			l0,0c0.7-0.2,1.4,0.2,1.6,0.9c0,0.1,0,0.2,0,0.2c0.1,0.6,0.2,1.3,0.2,1.9c0.1,0.7-0.3,1.3-1,1.4C101,29.4,100.9,29.4,100.8,29.4z"
			/>
		<path id="Path_10" class="st2" d="M96.6,20.8c-0.3-0.5-0.6-1-0.9-1.4c-0.4-0.6-0.3-1.3,0.2-1.8l0,0c0.5-0.5,1.4-0.4,1.8,0.1
			c0,0,0,0.1,0.1,0.1c0.4,0.5,0.7,1,1,1.6c0.4,0.7,0.1,1.5-0.5,1.9c0,0,0,0-0.1,0l0,0C97.6,21.6,96.9,21.4,96.6,20.8z"/>
		<path id="Path_11" class="st2" d="M91,14.4l-1.3-1.3c-0.5-0.5-0.5-1.4,0-1.9l0,0c0.5-0.5,1.4-0.5,1.9,0l1.3,1.3
			c0.5,0.5,0.5,1.4,0,1.9l0,0C92.4,14.9,91.5,14.9,91,14.4z"/>
		<path id="Path_12" class="st2" d="M85.8,8.5l-1.4-1.1c-0.6-0.4-0.7-1.3-0.3-1.8c0,0,0,0,0.1-0.1l0,0c0.4-0.6,1.3-0.7,1.8-0.3
			c0,0,0,0,0.1,0.1l1.4,1.1c0.6,0.4,0.7,1.3,0.3,1.8c0,0,0,0-0.1,0.1l0,0C87.2,8.8,86.4,8.9,85.8,8.5z"/>
		<path id="Path_13" class="st2" d="M60.5,9.2L60.5,9.2c-0.6-0.4-0.7-1.3-0.2-1.8c0,0,0,0,0-0.1c0.4-0.5,0.9-0.9,1.3-1.4
			c0.5-0.5,1.3-0.5,1.8,0c0,0,0,0.1,0.1,0.1l0,0c0.4,0.5,0.4,1.3-0.1,1.8L62.2,9C61.8,9.5,61,9.6,60.5,9.2z"/>
		<path id="Path_14" class="st2" d="M67.3,3.8L67.3,3.8C67,3.1,67.4,2.3,68.1,2c0.6-0.2,1.2-0.4,1.8-0.5c0.7-0.2,1.4,0.2,1.6,0.9
			c0,0.1,0,0.2,0,0.2l0,0c0.1,0.7-0.3,1.3-1,1.5c-0.5,0.1-1.1,0.3-1.6,0.5C68.3,4.7,67.6,4.4,67.3,3.8z"/>
		<path id="Path_15" class="st2" d="M78.6,4.4C78.1,4.2,77.5,4.1,77,4c-0.7-0.1-1.1-0.7-1-1.4l0,0c0.1-0.7,0.7-1.2,1.4-1.1
			c0.1,0,0.2,0,0.2,0c0.6,0.1,1.2,0.3,1.8,0.5c0.7,0.3,1.1,1,0.8,1.8c0,0,0,0,0,0l0,0C79.9,4.3,79.2,4.6,78.6,4.4z"/>
	</g>
</g>
<g>
	<path class="st3" d="M65.4,82.8l-4.8-3.2c-0.6-0.4-1.4,0.1-1.3,0.8l1,8.6l-3.9-0.4c-0.7-0.1-1.1,0.7-0.6,1.3l7.6,8.6
		c0.2,0.2,0.5,0.3,0.8,0.2l3.3-1L62.1,91c-0.2-0.3-0.3-0.7-0.1-1L65.4,82.8z M73.5,97.8l3.3,1c0.1,0,0.3,0,0.4,0
		c0.2,0,0.3-0.1,0.4-0.2l7.6-8.6c0.5-0.5,0-1.3-0.6-1.3l-3.9,0.4l1-8.6c0.1-0.7-0.7-1.2-1.3-0.8l-4.8,3.2l3.4,7.1
		c0.2,0.3,0.1,0.7-0.1,1L73.5,97.8z"/>
	<path class="st4" d="M69.7,77.7c0.3-0.7,1.3-0.7,1.6,0L77.1,90c0.1,0.3,0.1,0.6-0.1,0.9l-5.8,7.5c-0.3,0.4-1,0.4-1.4,0l-5.8-7.5
		c-0.2-0.3-0.2-0.6-0.1-0.9L69.7,77.7z"/>
</g>
</svg>
