<?xml version="1.0" encoding="utf-8"?>
<!-- Generator: Adobe Illustrator 24.1.3, SVG Export Plug-In . SVG Version: 6.00 Build 0)  -->
<svg version="1.1" id="图层_1" xmlns="http://www.w3.org/2000/svg" xmlns:xlink="http://www.w3.org/1999/xlink" x="0px" y="0px"
	 viewBox="0 0 111.1 118.3" style="enable-background:new 0 0 111.1 118.3;" xml:space="preserve">
<style type="text/css">
	.st0{fill:none;stroke:#E10185;stroke-width:3;stroke-linecap:round;stroke-linejoin:round;stroke-miterlimit:10;}
	
		.st1{opacity:0.5;fill:none;stroke:#BDC5D1;stroke-width:3;stroke-linecap:round;stroke-linejoin:round;stroke-miterlimit:10;enable-background:new    ;}
	.st2{fill:#E10185;stroke:#E10185;stroke-width:3;stroke-linecap:round;stroke-linejoin:round;stroke-miterlimit:10;}
	.st3{fill:none;stroke:#BDC5D1;stroke-width:3;stroke-linecap:round;stroke-linejoin:round;stroke-miterlimit:10;}
	.st4{opacity:0.5;fill:#BDC5D1;enable-background:new    ;}
	.st5{fill:#E10185;}
	.st6{fill:none;stroke:#FFFFFF;stroke-width:3;stroke-linecap:round;stroke-linejoin:round;stroke-miterlimit:10;}
</style>
<g id="icon-8" transform="translate(-6.8 -1.6)">
	<path id="Path_1" class="st0" d="M104.7,93.2c-2,3-4.4,5.8-6.9,8.4"/>
	<path id="Path_2" class="st1" d="M41.5,6.8c2.1-0.6,4.3-1.1,6.5-1.5"/>
	<path id="Path_3" class="st1" d="M16.2,22.2c3.8-3.9,8.1-7.3,12.8-10.1"/>
	<path id="Path_4" class="st1" d="M8.3,32.7c0.8-1.4,1.7-2.8,2.6-4.1"/>
	<path id="Path_5" class="st0" d="M57.4,118.4c-9.5,0-18.8-2.4-27.1-6.9"/>
	<path id="Path_6" class="st2" d="M82.4,112.6c-1.9,0.9-3.8,1.7-5.8,2.5"/>
	<g id="Group_1">
		<line id="Line_1" class="st3" x1="44.6" y1="46.9" x2="76.7" y2="46.9"/>
		<line id="Line_2" class="st3" x1="14.1" y1="46.9" x2="37.3" y2="46.9"/>
		<line id="Line_3" class="st3" x1="14.1" y1="76" x2="74.9" y2="76"/>
		<line id="Line_4" class="st3" x1="90.2" y1="76" x2="100.8" y2="76"/>
	</g>
	<line id="Line_5" class="st3" x1="57.4" y1="15.4" x2="57.4" y2="107.5"/>
	<path id="Path_7" class="st3" d="M71,17.4c-4.4-1.3-9-2-13.6-2c-25.4,0-46,20.7-46,46.1c0,25.4,20.7,46,46.1,46s46-20.7,46-46.1
		c0-5.2-0.9-10.3-2.6-15.2"/>
	<path id="Path_8" class="st3" d="M70.4,21.6c-1.3-1.4-2.7-2.5-4.3-3.5c-2.6-1.7-5.6-2.6-8.7-2.7c-14.3,0-25.9,20.6-25.9,46.1
		s11.6,46.1,25.9,46.1S83.3,87,83.3,61.5c0-4.6-0.4-9.1-1.2-13.6"/>
	<path id="Path_9" class="st4" d="M97.2,9.3c-11.4,0-20.7,9.2-20.7,20.7c0,0,0,0,0,0c0,6.1,7.2,19.7,19,36c0.4,0.6,1,0.9,1.7,0.8
		c0.7,0,1.3-0.3,1.7-0.8c11.8-16.1,19-29.7,19-36C117.9,18.6,108.6,9.3,97.2,9.3z"/>
	<path id="Path_10" class="st5" d="M91.1,1.6c-11.4,0-20.7,9.2-20.7,20.7c0,0,0,0,0,0c0,6.1,7.2,19.7,19,36c0.4,0.6,1,0.9,1.7,0.8
		c0.7,0,1.3-0.3,1.7-0.8c11.8-16.1,19-29.7,19-36C111.7,10.9,102.5,1.7,91.1,1.6z"/>
	<circle id="Ellipse_1" class="st6" cx="91.1" cy="22.4" r="9.6"/>
</g>
</svg>
