<?xml version="1.0" encoding="utf-8"?>
<!-- Generator: Adobe Illustrator 24.1.3, SVG Export Plug-In . SVG Version: 6.00 Build 0)  -->
<svg version="1.1" id="图层_1" xmlns="http://www.w3.org/2000/svg" xmlns:xlink="http://www.w3.org/1999/xlink" x="0px" y="0px"
	 viewBox="0 0 90.9 89.6" style="enable-background:new 0 0 90.9 89.6;" xml:space="preserve">
<style type="text/css">
	
		.st0{opacity:0.5;fill:none;stroke:#BDC5D1;stroke-width:3;stroke-linecap:round;stroke-linejoin:round;stroke-miterlimit:10;enable-background:new    ;}
	
		.st1{opacity:0.5;fill:none;stroke:#E10185;stroke-width:3;stroke-linecap:round;stroke-linejoin:round;stroke-miterlimit:10;enable-background:new    ;}
	
		.st2{opacity:0.5;fill:none;stroke:#DEE2E8;stroke-width:3;stroke-linecap:round;stroke-linejoin:round;stroke-miterlimit:10;enable-background:new    ;}
	.st3{fill-rule:evenodd;clip-rule:evenodd;fill:#E10185;}
	.st4{fill:#E10185;}
</style>
<g id="bnb-1" transform="translate(-3579.212 -262.101)">
	<g id="lines-b" transform="translate(3631.529 317.071)">
		<path id="Path_2" class="st0" d="M6.4,30.3c-2,0.9-4.1,1.7-6.2,2.4"/>
		<path id="Path_3" class="st1" d="M29.3,11.5c-3.2,4.4-7,8.4-11.3,11.8"/>
		<path id="Path_4" class="st0" d="M35.7,0c-0.6,1.5-1.3,3-2,4.4"/>
	</g>
	<g id="lines-r" transform="translate(3635.529 262.071)">
		<path id="Path_3-2" class="st2" d="M29.3,20.2c-3.2-4.4-7-8.4-11.3-11.8"/>
	</g>
	<g id="lines-l" transform="translate(3586.201 329.449)">
		<path id="Path_3-3" class="st2" d="M1.4,0c3.2,4.4,7,8.4,11.3,11.8"/>
	</g>
	<g id="lines-t" transform="translate(-2 -2)">
		<path id="Path_2-2" class="st0" d="M3613.4,268.5c2-0.9,4.1-1.7,6.2-2.4"/>
		<path id="Path_3-4" class="st1" d="M3590.5,287.2c3.2-4.4,7-8.4,11.3-11.8"/>
		<path id="Path_4-2" class="st0" d="M3584.1,298.7c0.6-1.5,1.3-3,2-4.4"/>
	</g>
</g>
<g>
	<path class="st3" d="M37.4,35.9l-8.3-5.4c-1.1-0.7-2.5,0.2-2.3,1.4l1.8,14.8l-6.7-0.6c-1.2-0.1-1.9,1.3-1.1,2.2l13,14.8
		c0.3,0.4,0.9,0.5,1.4,0.4l5.7-1.8l-9.1-11.7c-0.4-0.5-0.5-1.2-0.2-1.7L37.4,35.9z M51.4,61.7l5.7,1.8c0.2,0.1,0.5,0.1,0.7,0
		c0.3-0.1,0.5-0.2,0.7-0.4l13-14.8c0.8-0.9,0.1-2.3-1.1-2.2l-6.8,0.6l1.8-14.8c0.2-1.3-1.2-2.1-2.3-1.4l-8.3,5.4l5.8,12.3
		c0.3,0.6,0.2,1.2-0.2,1.7L51.4,61.7z"/>
	<path class="st4" d="M44.8,26.9c0.5-1.1,2.2-1.1,2.7,0l10.1,21.2c0.2,0.5,0.2,1.1-0.2,1.6L47.3,62.6c-0.6,0.8-1.8,0.8-2.4,0
		L34.9,49.7c-0.3-0.4-0.4-1.1-0.2-1.6L44.8,26.9z"/>
</g>
</svg>
