<?xml version="1.0" encoding="utf-8"?>
<!-- Generator: Adobe Illustrator 24.1.3, SVG Export Plug-In . SVG Version: 6.00 Build 0)  -->
<svg version="1.1" id="图层_1" xmlns="http://www.w3.org/2000/svg" xmlns:xlink="http://www.w3.org/1999/xlink" x="0px" y="0px"
	 viewBox="0 0 106.4 109.6" style="enable-background:new 0 0 106.4 109.6;" xml:space="preserve">
<style type="text/css">
	.st0{fill:none;stroke:#377DFF;stroke-width:3;stroke-linecap:round;stroke-linejoin:round;stroke-miterlimit:10;}
	.st1{fill:none;stroke:#BDC5D1;stroke-width:3;stroke-linecap:round;stroke-linejoin:round;stroke-miterlimit:10;}
	.st2{opacity:0.5;}
	.st3{fill:#E7EAF3;}
	.st4{fill:#BDC5D1;}
	.st5{fill:#FFFFFF;}
	.st6{fill:#E10185;}
	.st7{fill:none;stroke:#BDC5D1;stroke-width:3;stroke-linecap:round;}
</style>
<g id="icon-2" transform="translate(-0.13 -5.2)">
	<path id="Path_3" class="st0" d="M99.1,113.3"/>
	<path id="Path_4" class="st1" d="M15.1,75.6V11l4.4-4.3l4.3,4.3l4.3-4.3l4.3,4.3l4.3-4.3L41,11l4.3-4.3l4.3,4.3l4.3-4.3l4.3,4.3
		l4.3-4.3l4.3,4.3l4.3-4.3l4.3,4.3l4.3-4.3L84,11l5-4.3l4.4,4.3v96.5c0,3.2,2.6,5.8,5.8,5.8c0,0,0,0,0,0l0,0c3.2,0,5.8-2.6,5.8-5.8
		c0,0,0,0,0,0V13.2h-5.8v93.1"/>
	<line id="Line_1" class="st1" x1="99.1" y1="113.3" x2="26.1" y2="113.3"/>
	<g id="Block_row_3" transform="translate(0 29)">
		<g id="Group_1" transform="translate(0 30)" class="st2">
			<path id="Path_5" class="st3" d="M78.1,44.5H39.2c-4,0-7.3-3.2-7.3-7.3c0,0,0,0,0,0l0,0c0-4,3.2-7.3,7.3-7.3c0,0,0,0,0,0h38.9
				c4,0,7.3,3.2,7.3,7.3c0,0,0,0,0,0l0,0c0,4-3.1,7.3-7.1,7.3C78.2,44.5,78.2,44.5,78.1,44.5z"/>
		</g>
		<g id="Group_2" transform="translate(0 30)">
			<path id="Path_6" class="st4" d="M73.1,38H34.2c-4,0-7.3-3.2-7.3-7.3c0,0,0,0,0,0l0,0c0-4,3.2-7.3,7.3-7.3c0,0,0,0,0,0h38.9
				c4,0,7.3,3.2,7.3,7.3c0,0,0,0,0,0l0,0c0,4-3.1,7.3-7.1,7.3C73.2,38,73.2,38,73.1,38z"/>
		</g>
		<g id="Group_3" transform="translate(0 30)">
			<path id="Path_7" class="st5" d="M65.4,32.3H41.9c-0.9,0-1.6-0.7-1.6-1.6c0,0,0,0,0,0l0,0c0-0.9,0.7-1.6,1.6-1.6c0,0,0,0,0,0
				h23.5c0.9,0,1.6,0.7,1.6,1.6c0,0,0,0,0,0l0,0C67,31.6,66.3,32.3,65.4,32.3z"/>
		</g>
	</g>
	<g id="Block_row_2">
		<g id="Group_1-2" transform="translate(0 30)" class="st2">
			<path id="Path_5-2" class="st3" d="M78.1,44.5H39.2c-4,0-7.3-3.2-7.3-7.3c0,0,0,0,0,0l0,0c0-4,3.2-7.3,7.3-7.3c0,0,0,0,0,0h38.9
				c4,0,7.3,3.2,7.3,7.3c0,0,0,0,0,0l0,0c0,4-3.1,7.3-7.1,7.3C78.2,44.5,78.2,44.5,78.1,44.5z"/>
		</g>
		<g id="Group_2-2" transform="translate(0 30)">
			<path id="Path_6-2" class="st4" d="M73.1,38H34.2c-4,0-7.3-3.2-7.3-7.3c0,0,0,0,0,0l0,0c0-4,3.2-7.3,7.3-7.3c0,0,0,0,0,0h38.9
				c4,0,7.3,3.2,7.3,7.3c0,0,0,0,0,0l0,0c0,4-3.1,7.3-7.1,7.3C73.2,38,73.2,38,73.1,38z"/>
		</g>
		<g id="Group_3-2" transform="translate(0 30)">
			<path id="Path_7-2" class="st5" d="M65.4,32.3H41.9c-0.9,0-1.6-0.7-1.6-1.6c0,0,0,0,0,0l0,0c0-0.9,0.7-1.6,1.6-1.6c0,0,0,0,0,0
				h23.5c0.9,0,1.6,0.7,1.6,1.6c0,0,0,0,0,0l0,0C67,31.6,66.3,32.3,65.4,32.3z"/>
		</g>
	</g>
	<g id="Block_row_1">
		<g id="Group_5" class="st2">
			<path id="Path_5-3" class="st4" d="M78.1,44.5H39.2c-4,0-7.3-3.2-7.3-7.3c0,0,0,0,0,0l0,0c0-4,3.2-7.3,7.3-7.3c0,0,0,0,0,0h38.9
				c4,0,7.3,3.2,7.3,7.3c0,0,0,0,0,0l0,0c0,4-3.1,7.3-7.1,7.3C78.2,44.5,78.2,44.5,78.1,44.5z"/>
		</g>
		<g id="Group_7">
			<path id="Path_6-3" class="st6" d="M73.1,38H34.2c-4,0-7.3-3.2-7.3-7.3c0,0,0,0,0,0l0,0c0-4,3.2-7.3,7.3-7.3c0,0,0,0,0,0h38.9
				c4,0,7.3,3.2,7.3,7.3c0,0,0,0,0,0l0,0c0,4-3.1,7.3-7.1,7.3C73.2,38,73.2,38,73.1,38z"/>
		</g>
		<g id="Group_6">
			<path id="Path_7-3" class="st5" d="M65.4,32.3H41.9c-0.9,0-1.6-0.7-1.6-1.6c0,0,0,0,0,0l0,0c0-0.9,0.7-1.6,1.6-1.6c0,0,0,0,0,0
				h23.5c0.9,0,1.6,0.7,1.6,1.6c0,0,0,0,0,0l0,0C67,31.6,66.3,32.3,65.4,32.3z"/>
		</g>
	</g>
	<g id="Group_4" transform="translate(-2.15)" class="st2">
		<path id="Path_15" class="st7" d="M3.8,86h12.4"/>
		<line id="Line_3" class="st1" x1="3.8" y1="93.5" x2="22.6" y2="93.5"/>
		<line id="Line_4" class="st1" x1="3.8" y1="101.1" x2="11.2" y2="101.2"/>
		<path id="Path_16" class="st7" d="M18.2,101.1h4.5"/>
	</g>
</g>
</svg>
